<?xml version="1.0" encoding="utf-8" ?><svg xmlns="http://www.w3.org/2000/svg" xmlns:xlink="http://www.w3.org/1999/xlink" width="200" height="200" viewBox="-117 0 1024 1024"><defs><linearGradient id="base_fade" gradientUnits="objectBoundingBox" x1="0.5" y1="1" x2="0.5" y2="0"><stop offset="0" stop-color="#1a2524"/><stop offset="0.55" stop-color="#1a5c58"/><stop offset="1" stop-color="#1a5c58"/></linearGradient><linearGradient id="bot1" gradientUnits="objectBoundingBox" x1="0.5" y1="1" x2="0.5" y2="0"><stop offset="0" stop-color="#253433"/><stop offset="0.45" stop-color="#0d9488"/><stop offset="1" stop-color="#0d9488"/></linearGradient><linearGradient id="bot2" gradientUnits="objectBoundingBox" x1="0.5" y1="1" x2="0.5" y2="0"><stop offset="0" stop-color="#2d4240"/><stop offset="0.3" stop-color="#5eead4"/><stop offset="1" stop-color="#5eead4"/></linearGradient><linearGradient id="bot3" gradientUnits="objectBoundingBox" x1="0.5" y1="1" x2="0.5" y2="0"><stop offset="0" stop-color="#365250"/><stop offset="0.2" stop-color="#14b8a6"/><stop offset="1" stop-color="#14b8a6"/></linearGradient></defs><path fill="url(#base_fade)" d="M417.169 110.148C423.426 109.616 426.698 110.543 431.912 114.023C442.215 120.897 452.401 127.933 462.598 134.962L515.37 171.428L632.574 251.758C651.751 264.819 670.858 277.982 689.895 291.245C694.653 294.528 700.434 298.615 705.28 301.637C717.761 309.42 714.786 316.937 711.974 329.265L707.428 349.611C702.121 373.428 696.933 397.271 691.866 421.14L633.546 689.611L619.57 753.316C618.372 758.621 613.926 782.996 611.143 785.295L491.493 884.39C478.562 895.039 465.352 906.34 451.994 916.399C449.4 918.352 434.715 919.871 430.555 920.509C411.113 923.665 391.633 926.584 372.12 929.266C367.034 930.013 358.821 932.482 354.233 930.292C346.174 926.444 338.074 921.788 330.252 917.461L290.468 895.708L241.147 868.882C232.555 864.187 222.488 859.08 214.437 853.618C211.918 851.908 206.662 834.822 205.347 831.013L190.326 787.658L107.46 549.149L87.8135 492.271C84.7652 483.466 80.4266 471.146 77.6258 462.691C76.1457 458.222 87.8621 429.366 89.8171 423.972L115.529 353.196L152.416 251.608C157.918 236.672 163.219 220.533 169.697 206.046C171.127 202.85 173.598 202.132 177.071 200.68C184.124 197.732 191.555 195.085 198.732 192.366L237.565 177.707L321.053 146.304L385.371 121.977C394.945 118.353 407.633 113.118 417.169 110.148Z"/><path fill="#14b8a6" d="M423.192 141.346C429.801 145.134 443.784 155.414 450.524 160.048L505.331 197.637L683.519 319.965C679.167 329.366 674.858 339.958 670.714 349.514L647.17 403.562L559.284 605.875C551.911 623.211 544.444 640.506 536.882 657.76C531.98 648.209 526.03 633.339 521.581 623.223L492.432 557.343L460.5 485.375C457.875 479.465 455.195 473.569 452.531 467.676C440.066 440.107 429.22 411.684 417.885 383.636L350.356 215.825C373.665 191.144 399.312 165.633 423.192 141.346Z"/><defs><linearGradient id="gradient_0" gradientUnits="userSpaceOnUse" x1="157.3974" y1="457.87231" x2="417.00458" y2="458.453"><stop offset="0" stop-color="#3dd8c5"/><stop offset="1" stop-color="#5eead4"/></linearGradient></defs><path fill="url(#gradient_0)" d="M202.438 365.586C205.451 361.963 211.227 356.465 214.723 352.943L238.372 328.975L329.044 236.773L394.13 398.455C401.877 417.829 411.55 440.1 418.582 459.405C413.89 471.441 408.471 483.679 403.333 495.559C376.809 556.884 351.692 619.019 324.93 680.222C313.589 667.894 301.229 655.584 289.488 643.585L241.163 593.99L219.397 571.668C216.446 568.642 209.743 561.991 207.515 559.069C205.544 558.062 189.017 540.436 186.399 537.749L110.054 459.241C116.123 452.459 123.982 444.912 130.437 438.423L159.914 408.586L185.828 382.281C190.977 377.017 197.068 370.468 202.438 365.586Z"/><path fill="url(#bot2)" d="M124.314 513.24C126.179 514.386 141.101 530.211 143.353 532.536L193.947 584.683L274.225 667.319L299.768 693.647C304.974 699.003 311.609 705.505 316.311 711.085C318.05 727.523 321.073 744.791 323.314 761.298L341.841 892.323C338.334 891.517 316.103 878.697 311.686 876.282L235.874 834.973C230.62 822.308 224.676 802.909 219.982 789.523L183.761 685.136L143.403 569.057C137.301 551.368 129.56 531.011 124.314 513.24Z"/><path fill="url(#bot1)" d="M424.617 712.548C437.958 711.182 452.52 710.829 465.996 709.868C482.411 708.699 498.8 707.48 515.233 706.623C512.023 715.466 508.755 722.324 504.882 730.847C502.161 736.833 500.644 742.372 497.269 748.48L457.048 841.69L442.756 874.962C440.42 880.367 437.845 886.89 435.213 892.054C420.99 893.96 406.219 896.76 391.926 898.692C384.871 899.645 377.822 901.095 370.707 901.698C370.504 896.676 369.451 889.809 368.661 884.793C359.93 829.357 353.428 773.405 344.532 718.017C360.935 716.719 377.351 715.591 393.777 714.632C403.809 713.965 414.705 712.887 424.617 712.548Z"/><path fill="#115e59" d="M433.673 494.275C435.514 495.875 448.891 527.348 450.852 531.74L487.738 614.64C496.955 635.582 507.784 657.984 516.233 678.946C508.936 679.942 495.589 680.321 487.531 680.839C467.886 682.073 448.25 683.425 428.621 684.894C403.171 686.549 376.312 688.49 350.92 689.651C354.292 680.477 358.934 670.115 362.774 661.031L384.106 610.884C400.432 571.931 416.954 533.061 433.673 494.275Z"/><path fill="url(#bot3)" d="M657.312 448.86C657.898 451.168 647.42 497.579 646.11 503.562C639.997 532.854 633.632 562.093 627.017 591.276L601.754 707.213C597.329 727.507 593.083 748.822 588.206 768.966C585.479 771.677 579.714 776.194 576.627 778.76L553.294 798.056L480.422 858.139C480.008 856.287 495.036 822.485 496.934 818.076L535.272 729.729L657.312 448.86Z"/><defs><linearGradient id="gradient_2" gradientUnits="userSpaceOnUse" x1="121.73712" y1="295.63596" x2="383.66525" y2="248.68813"><stop offset="0" stop-color="#6ee7b7"/><stop offset="1" stop-color="#a7f3d0"/></linearGradient></defs><path fill="url(#gradient_2)" d="M369.062 157.374C365.229 162.217 357.538 169.706 352.974 174.367L323.582 204.206L239.215 289.913L172.109 358.061C166.483 363.72 160.906 369.426 155.375 375.177C153.253 377.38 147.578 383.457 145.477 385.124C144.61 385.439 144.491 385.447 143.573 385.576C141.09 383.203 136.467 378.972 136.29 375.496C153.123 332.196 167.844 287.657 184.417 244.21C186.857 237.813 189.345 230.98 191.48 224.502L295.267 185.051C309.807 179.449 324.383 173.94 338.993 168.522C348.302 164.979 359.792 160.244 369.062 157.374Z"/><path fill="#5eead4" d="M136.29 375.496C136.467 378.972 141.09 383.203 143.573 385.576C144.491 385.447 144.61 385.439 145.477 385.124C139.424 391.833 131.461 399.593 125.05 406.186C128.368 396.387 132.743 385.468 136.29 375.496Z"/></svg>